<svg xmlns="http://www.w3.org/2000/svg" width="26" height="22" viewBox="0 0 26 22">
  <metadata><?xpacket begin="﻿" id="W5M0MpCehiHzreSzNTczkc9d"?>
<x:xmpmeta xmlns:x="adobe:ns:meta/" x:xmptk="Adobe XMP Core 5.6-c142 79.160924, 2017/07/13-01:06:39        ">
   <rdf:RDF xmlns:rdf="http://www.w3.org/1999/02/22-rdf-syntax-ns#">
      <rdf:Description rdf:about=""/>
   </rdf:RDF>
</x:xmpmeta>
                                                                                                    
                                                                                                    
                                                                                                    
                                                                                                    
                                                                                                    
                                                                                                    
                                                                                                    
                                                                                                    
                                                                                                    
                                                                                                    
                                                                                                    
                                                                                                    
                                                                                                    
                                                                                                    
                                                                                                    
                                                                                                    
                                                                                                    
                                                                                                    
                                                                                                    
                                                                                                    
                           
<?xpacket end="w"?></metadata>
<defs>
    <style>
      .cls-1 {
        fill: #f38181;
        fill-rule: evenodd;
      }
    </style>
  </defs>
  <path id="twitter" class="cls-1" d="M17.513,0.6a5.4,5.4,0,0,1,4.151,1.648,8.5,8.5,0,0,0,2.691-.907l0.653-.357A5.254,5.254,0,0,1,23.3,3.45a2.524,2.524,0,0,1-.577.409V3.871a9.837,9.837,0,0,0,2.973-.8V3.079a8.5,8.5,0,0,1-1.781,2.044l-0.82.651a15.044,15.044,0,0,1-.244,3.373c-1.312,5.895-4.787,9.9-10.289,11.612a15.729,15.729,0,0,1-7.431.306,19.191,19.191,0,0,1-3.088-1.009,12.3,12.3,0,0,1-1.486-.767L0.1,19.009a8.565,8.565,0,0,0,1.679.064c0.516-.084,1.023-0.062,1.5-0.166A10.77,10.77,0,0,0,6.429,17.77a5.863,5.863,0,0,0,1.422-.932,4.476,4.476,0,0,1-1.563-.281A5.275,5.275,0,0,1,2.957,13.2a5.207,5.207,0,0,0,2.345-.1,3.845,3.845,0,0,1-1.717-.69,5.053,5.053,0,0,1-2.473-4.5L1.65,8.163a5.771,5.771,0,0,0,1.1.307,1.574,1.574,0,0,0,.718.063H3.444C3.18,8.226,2.749,8.021,2.483,7.69A5.366,5.366,0,0,1,1.3,2.926a6.1,6.1,0,0,1,.564-1.367L1.894,1.571a3.2,3.2,0,0,0,.474.549A9.615,9.615,0,0,0,3.931,3.615a15.461,15.461,0,0,0,6.419,3.1,10.015,10.015,0,0,0,2.358.307,4.881,4.881,0,0,1,.026-2.466,5.178,5.178,0,0,1,2.973-3.525A6.312,6.312,0,0,1,16.872.677Z"/>
</svg>
