<svg xmlns="http://www.w3.org/2000/svg" width="26" height="26" viewBox="0 0 26 26"><path id="instagram" d="M22.7 25.8H3.5a3.2 3.2 0 0 1-3.2-3.2V3.4A3.2 3.2 0 0 1 3.5.2h19.2a3.2 3.2 0 0 1 3.2 3.2v19.2a3.2 3.2 0 0 1-3.2 3.2zM13.1 8.039a4.957 4.957 0 0 0-4.5 2.88l-.022.055a5.241 5.241 0 0 0-.129.321c-.019.053-.04.1-.057.155-.037.111-.066.225-.1.34-.014.054-.03.106-.041.16a4.952 4.952 0 0 0-.061.368c-.007.05-.017.1-.023.15a4.96 4.96 0 1 0 9.861 0c-.005-.051-.016-.1-.023-.15a4.952 4.952 0 0 0-.061-.368c-.012-.054-.028-.107-.041-.16a3.39 3.39 0 0 0-.1-.34c-.017-.052-.038-.1-.057-.155a4.477 4.477 0 0 0-.129-.321l-.022-.055a4.957 4.957 0 0 0-4.495-2.88zm9.92-3.68a1.28 1.28 0 0 0-1.28-1.28h-2.56a1.28 1.28 0 0 0-1.28 1.28V6.92a1.28 1.28 0 0 0 1.28 1.28h2.56a1.28 1.28 0 0 0 1.28-1.28V4.359zm0 6.56h-2.36a7.84 7.84 0 1 1-15.121 0H3.18v10.72a1.28 1.28 0 0 0 1.28 1.28h17.28a1.28 1.28 0 0 0 1.28-1.28v-10.72z" fill="#f38181" fill-rule="evenodd"/></svg>