<svg xmlns="http://www.w3.org/2000/svg" width="32" height="31" viewBox="0 0 32 31"><path id="ALARM" d="M30.74 9.5a15.719 15.719 0 0 0-8.24-8.24 5.869 5.869 0 0 1 8.24 8.24zM30.5 16a14.435 14.435 0 0 1-3.962 9.94l2.028 2.028a1.483 1.483 0 1 1-2.1 2.1l-2.176-2.181a14.457 14.457 0 0 1-16.566.01L5.561 30.06a1.5 1.5 0 1 1-2.121-2.121l2.012-2.012A14.494 14.494 0 1 1 30.5 16zM16 4.5A11.5 11.5 0 1 0 27.5 16 11.5 11.5 0 0 0 16 4.5zm6 13h-6a1.5 1.5 0 0 1-1.5-1.5V8a1.5 1.5 0 0 1 3 0v6.5H22a1.5 1.5 0 0 1 0 3zM1.287 9.705a5.994 5.994 0 0 1 8.419-8.418 16.056 16.056 0 0 0-8.419 8.418z" fill="#95e1d3" fill-rule="evenodd"/></svg>