<svg xmlns="http://www.w3.org/2000/svg" width="21" height="26" viewBox="0 0 21 26"><path id="pinterest" d="M9.051 16.854c-.209.833-.42 1.706-.638 2.561a19.538 19.538 0 0 1-.718 2.47 12.651 12.651 0 0 1-2.044 3.521c-.575.667-.452.4-.626.365-.132-.027-.144-.157-.169-.344a19.283 19.283 0 0 1 .008-3.34 18.045 18.045 0 0 1 .588-3.471c.485-2.063.946-4.087 1.435-6.164a1.369 1.369 0 0 0 .09-.445 6.414 6.414 0 0 1-.429-1.7 5.41 5.41 0 0 1 .139-1.943 3.209 3.209 0 0 1 1.895-2.34 2.175 2.175 0 0 1 1.734.132 1.884 1.884 0 0 1 .868 1.244 4.49 4.49 0 0 1-.08 1.892c-.267 1.218-.618 2.133-.937 3.309a3.64 3.64 0 0 0-.189 1.812 2.106 2.106 0 0 0 .847 1.275 2.465 2.465 0 0 0 1.625.455 3.552 3.552 0 0 0 2.65-1.566 9.272 9.272 0 0 0 1.675-4.686 11.517 11.517 0 0 0 .07-2.014 5.479 5.479 0 0 0-1.126-3.117 5.28 5.28 0 0 0-2.512-1.711 8.332 8.332 0 0 0-3.747-.233 6.636 6.636 0 0 0-4.915 3.533 7.078 7.078 0 0 0-.837 3.41 4.426 4.426 0 0 0 .678 2.5c.133.2.328.367.458.6a1.729 1.729 0 0 1-.12 1.164c-.11.425-.121 1.012-.618 1.022a1.506 1.506 0 0 1-.637-.245 5.117 5.117 0 0 1-2.422-3.734 8.934 8.934 0 0 1 0-3.238 9.214 9.214 0 0 1 4.4-6.143A10.45 10.45 0 0 1 9.35.337c.508-.074 1.034-.1 1.605-.132a9.638 9.638 0 0 1 4.326.809 8.849 8.849 0 0 1 2.98 2.146A8.122 8.122 0 0 1 20.1 6.47a7.977 7.977 0 0 1 .4 2.287 13.725 13.725 0 0 1-.308 2.368 9.329 9.329 0 0 1-3.838 6.458 6.635 6.635 0 0 1-1.754.809 6.408 6.408 0 0 1-2.243.283 4.6 4.6 0 0 1-1.983-.577 3.287 3.287 0 0 1-1.323-1.244z" fill="#f38181" fill-rule="evenodd"/></svg>