<svg xmlns="http://www.w3.org/2000/svg" width="32" height="32" viewBox="0 0 32 32"><path id="BOOK_2" data-name="BOOK 2" d="M31.065 25.889l-14.471 5.988a1.5 1.5 0 0 1-1.187 0L.935 25.889A1.5 1.5 0 0 1 0 24.5v-23A1.5 1.5 0 0 1 2.073.114l.016.006L16 5.876 29.911.12l.013-.005A1.5 1.5 0 0 1 32 1.5v23a1.5 1.5 0 0 1-.935 1.389zM14.5 8.5L3 3.744V23.5l11.5 4.759V8.5zM29 3.744L17.5 8.5v19.756L29 23.5V3.744zm-9.121 6.89l5.5-2.5a1.5 1.5 0 1 1 1.241 2.731l-5.5 2.5a1.5 1.5 0 1 1-1.241-2.731zm0 5.5l5.5-2.5a1.5 1.5 0 1 1 1.241 2.731l-5.5 2.5a1.5 1.5 0 1 1-1.241-2.731zm0 5.5l5.5-2.5a1.5 1.5 0 1 1 1.241 2.731l-5.5 2.5a1.5 1.5 0 1 1-1.241-2.731zM6 8a1.49 1.49 0 0 1 .621.135l5.5 2.5a1.5 1.5 0 1 1-1.241 2.731l-5.5-2.5A1.5 1.5 0 0 1 6 8zm0 5.5a1.5 1.5 0 0 1 .621.134l5.5 2.5a1.5 1.5 0 1 1-1.241 2.73l-5.5-2.5A1.5 1.5 0 0 1 6 13.5zM6 19a1.49 1.49 0 0 1 .621.135l5.5 2.5a1.5 1.5 0 1 1-1.241 2.731l-5.5-2.5A1.5 1.5 0 0 1 6 19z" fill="#95e1d3" fill-rule="evenodd"/></svg>