<svg aria-hidden="true" style="position:absolute;width:0;height:0" overflow="hidden"><defs><symbol id="icon-creativity" viewBox="0 0 32 32"><path d="M30 25h-9.5v2.5l2 2v.5h-13v-.5l2-2V25H2a1.5 1.5 0 0 1-1.5-1.5v-20A1.5 1.5 0 0 1 2 2h28a1.5 1.5 0 0 1 1.5 1.5v20A1.5 1.5 0 0 1 30 25zm-.5-21h-27v17h27V4zM13 11h.001c.414 0 .789.168 1.06.439l.939.939 2.939-2.939a1.5 1.5 0 1 1 2.122 2.121l-4 4c-.271.271-.646.439-1.06.439s-.789-.168-1.06-.439l-2-2A1.5 1.5 0 0 1 13.002 11z"/></symbol><symbol id="icon-css-html" viewBox="0 0 32 32"><path d="M32 17a1.5 1.5 0 0 1-2.521 1.093l.001.001L16 4.622 2.554 18.069a1.5 1.5 0 0 1-2.093-2.15L14.919 1.46C15.192 1.176 15.576 1 16 1h.091l.069.008c.373.04.7.213.939.468l.001.001 5.9 5.9V6a1.5 1.5 0 0 1 3 0v4.378l5.6 5.6c.248.265.4.623.4 1.016V17zm-3 2.5V30a1.5 1.5 0 0 1-1.5 1.5h-3v-12h-6v12h-14A1.5 1.5 0 0 1 3 30V19.5l13-13zm-15.5 0h-6v6h6v-6z"/></symbol><symbol id="icon-digital" viewBox="0 0 32 32"><path d="M30.5 32h-29A1.5 1.5 0 0 1 0 30.5v-29A1.5 1.5 0 0 1 1.5 0h29A1.5 1.5 0 0 1 32 1.5v29a1.5 1.5 0 0 1-1.5 1.5zM29 3H3v26h26V3zM6.5 4.5H12a1.5 1.5 0 0 1 0 3H7.5V12a1.5 1.5 0 0 1-3 0V4.5h2zM4.5 20a1.5 1.5 0 0 1 3 0v4.5H12a1.5 1.5 0 0 1 0 3H4.5V20zM20 4.5h7.5V12a1.5 1.5 0 0 1-3 0V7.5H20a1.5 1.5 0 0 1 0-3zm0 20h4.5V20a1.5 1.5 0 0 1 3 0v7.5H20a1.5 1.5 0 0 1 0-3z"/></symbol><symbol id="icon-facebook" viewBox="0 0 32 32"><path d="M22.879.246v5.071s-3.739-.369-4.677 1.06c-.512.783-.208 3.077-.254 4.722h4.959c-.42 1.926-.72 3.23-1.028 4.897h-3.956v15.758h-6.87V16.058H8.13V11.1h2.891c.148-3.626.204-7.217 2.005-9.046C15.049 0 16.984.246 22.878.246z"/></symbol><symbol id="icon-instagram" viewBox="0 0 32 32"><path d="M27.938 31.754H4.307a3.938 3.938 0 0 1-3.938-3.938V4.185A3.938 3.938 0 0 1 4.307.247h23.631a3.938 3.938 0 0 1 3.938 3.938v23.631a3.938 3.938 0 0 1-3.938 3.938zM16.123 9.894a6.101 6.101 0 0 0-5.523 3.507l-.016.037c-.01.022-.017.046-.027.068-.058.129-.11.262-.159.395-.023.065-.049.123-.07.191-.046.137-.081.277-.123.418-.017.066-.037.13-.05.197a6.11 6.11 0 0 0-.075.453c-.009.062-.021.123-.028.185a6.105 6.105 0 1 0 12.135-.028l.003.028c-.006-.063-.02-.123-.028-.185a6.11 6.11 0 0 0-.075-.453c-.015-.066-.034-.132-.05-.197a4.267 4.267 0 0 0-.123-.418c-.021-.064-.047-.123-.07-.191a5.425 5.425 0 0 0-.159-.395c-.01-.022-.017-.046-.027-.068-.99-2.108-3.093-3.542-5.532-3.545zm12.209-4.529c0-.87-.705-1.575-1.575-1.575h-3.151c-.87 0-1.575.705-1.575 1.575v3.152c0 .87.705 1.575 1.575 1.575h3.151c.87 0 1.575-.705 1.575-1.575V5.365zm0 8.074h-2.905c.218.766.344 1.645.344 2.553 0 5.329-4.32 9.649-9.649 9.649s-9.649-4.32-9.649-9.649c0-.909.126-1.788.36-2.621l-.016.068H3.914v13.194c0 .87.705 1.575 1.575 1.575h21.268c.87 0 1.575-.705 1.575-1.575V13.439z"/></symbol><symbol id="icon-magnifying-class" viewBox="0 0 32 32"><path d="M30.786 26.636a2.933 2.933 0 1 1-4.149 4.147l-8.597-8.597a11.634 11.634 0 0 1-5.982 1.634C5.561 23.82.294 18.553.294 12.056S5.561.292 12.058.292c6.497 0 11.764 5.267 11.764 11.764 0 2.206-.607 4.271-1.664 6.035l.03-.053 8.597 8.597zM12.089 3.287a8.8 8.8 0 1 0 8.8 8.802v-.002a8.8 8.8 0 0 0-8.8-8.8z"/></symbol><symbol id="icon-photography" viewBox="0 0 32 32"><path d="M30.74 10c-1.623-3.714-4.526-6.617-8.139-8.201L22.5 1.76a5.87 5.87 0 0 1 8.231 8.252L30.74 10zm-.24 6.5v.006c0 3.852-1.509 7.352-3.968 9.94l.006-.006 2.028 2.028a1.485 1.485 0 0 1-2.1 2.1l-2.176-2.181A14.336 14.336 0 0 1 16 31c-3.098 0-5.968-.974-8.322-2.634l.046.031-2.163 2.163a1.5 1.5 0 1 1-2.121-2.121l2.012-2.012a14.439 14.439 0 0 1-3.94-9.934c0-8.005 6.489-14.494 14.494-14.494S30.5 8.488 30.5 16.493v.008zM16 5C9.649 5 4.5 10.149 4.5 16.5S9.649 28 16 28s11.5-5.149 11.5-11.5S22.351 5 16 5zm6 13h-6a1.5 1.5 0 0 1-1.5-1.5v-8a1.5 1.5 0 0 1 3 0V15H22a1.5 1.5 0 0 1 0 3zM1.287 10.205a5.995 5.995 0 0 1 8.432-8.409l-.012-.009c-3.795 1.658-6.761 4.624-8.379 8.315l-.04.103z"/></symbol><symbol id="icon-pinterest" viewBox="0 0 32 32"><path d="M14.217 20.743c-.257 1.025-.517 2.1-.785 3.152a23.695 23.695 0 0 1-.938 3.206l.054-.166a15.627 15.627 0 0 1-2.537 4.36l.021-.026c-.708.821-.556.492-.77.449-.162-.033-.177-.193-.208-.423a23.982 23.982 0 0 1 .017-4.204l-.007.093c.113-1.57.37-3.027.761-4.428l-.037.156c.597-2.539 1.164-5.03 1.766-7.586.064-.162.104-.349.111-.545v-.003a7.701 7.701 0 0 1-.525-2.056l-.003-.036a6.653 6.653 0 0 1 .182-2.438l-.01.046a3.964 3.964 0 0 1 2.307-2.87l.026-.01c.262-.094.565-.149.881-.149.459 0 .89.115 1.268.319l-.014-.007a2.33 2.33 0 0 1 1.066 1.516l.003.015a5.532 5.532 0 0 1-.107 2.367l.009-.039c-.329 1.499-.761 2.625-1.153 4.073a4.392 4.392 0 0 0-.282 1.565c0 .235.018.465.053.69l-.003-.025a2.605 2.605 0 0 0 1.034 1.564l.008.005a3.01 3.01 0 0 0 2.011.56l-.011.001a4.376 4.376 0 0 0 3.252-1.912l.01-.015a11.295 11.295 0 0 0 2.059-5.73l.002-.038c.067-.519.106-1.12.106-1.73 0-.263-.007-.525-.021-.785l.002.036a6.721 6.721 0 0 0-1.397-3.852l.012.016a6.517 6.517 0 0 0-3.046-2.093l-.046-.013a10.017 10.017 0 0 0-2.926-.426c-.595 0-1.179.051-1.747.148l.061-.009a8.196 8.196 0 0 0-6.028 4.303l-.021.045a8.6 8.6 0 0 0-1.031 4.11v.091-.005a5.426 5.426 0 0 0 .847 3.099l-.013-.022c.164.246.404.452.564.738a2.106 2.106 0 0 1-.154 1.445l.006-.013c-.135.523-.149 1.246-.761 1.258a1.84 1.84 0 0 1-.79-.306l.006.004a6.313 6.313 0 0 1-2.978-4.564l-.003-.032c-.116-.599-.182-1.288-.182-1.993s.066-1.393.193-2.061l-.011.069A11.39 11.39 0 0 1 9.732 2.1l.053-.029A12.656 12.656 0 0 1 14.521.42l.067-.008c.625-.091 1.273-.123 1.975-.162a11.818 11.818 0 0 1 5.399 1.026l-.075-.03c1.44.644 2.66 1.536 3.66 2.633l.008.009a9.972 9.972 0 0 1 2.246 4.003l.017.071c.286.836.464 1.8.492 2.801v.014a16.97 16.97 0 0 1-.401 3.027l.021-.113a11.5 11.5 0 0 1-4.69 7.925l-.034.023a8.055 8.055 0 0 1-2.101.981l-.058.015a7.707 7.707 0 0 1-2.78.348l.02.001a5.649 5.649 0 0 1-2.469-.725l.028.015a4.078 4.078 0 0 1-1.618-1.513l-.01-.018z"/></symbol><symbol id="icon-seo" viewBox="0 0 32 32"><path d="M31.065 25.889l-14.471 5.988a1.496 1.496 0 0 1-1.196-.004l.01.004L.936 25.889A1.502 1.502 0 0 1 .001 24.5v-23A1.5 1.5 0 0 1 2.084.117l.006.002 13.911 5.756L29.925.114a1.5 1.5 0 0 1 2.076 1.385v23c0 .625-.382 1.16-.925 1.385l-.01.004zM14.5 8.5L3 3.744V23.5l11.5 4.759V8.5zM29 3.744L17.5 8.5v19.756L29 23.5V3.744zm-9.121 6.89l5.5-2.5a1.5 1.5 0 0 1 1.25 2.727l-.009.004-5.5 2.5a1.5 1.5 0 0 1-1.25-2.727l.009-.004zm0 5.5l5.5-2.5a1.5 1.5 0 0 1 1.25 2.727l-.009.004-5.5 2.5a1.5 1.5 0 0 1-1.25-2.727l.009-.004zm0 5.5l5.5-2.5a1.5 1.5 0 0 1 1.25 2.727l-.009.004-5.5 2.5a1.5 1.5 0 0 1-1.25-2.727l.009-.004zM6 8h.001c.225 0 .438.05.629.139l-.009-.004 5.5 2.5a1.5 1.5 0 1 1-1.25 2.727l.009.004-5.5-2.5A1.5 1.5 0 0 1 6 8zm0 5.5h.001c.225 0 .438.049.629.138l-.009-.004 5.5 2.5a1.5 1.5 0 1 1-1.249 2.726l.009.004-5.5-2.5a1.5 1.5 0 0 1 .62-2.864zM6 19h.001c.225 0 .438.05.629.139l-.009-.004 5.5 2.5a1.5 1.5 0 1 1-1.25 2.727l.009.004-5.5-2.5A1.5 1.5 0 0 1 6 19z"/></symbol><symbol id="icon-shoping-cart" viewBox="0 0 32 32"><path d="M31.513 9.179l-4.4 9.778c-.222.487-.69.826-1.24.862h-.004l-12.672.844.74 2.092h13.797a2.933 2.933 0 1 1-2.933 2.933H11.112a2.933 2.933 0 1 1-2.933-2.933h2.651L5.184 6.622h-3.36a1.467 1.467 0 0 1 0-2.934h4.4a1.46 1.46 0 0 1 1.376.975l.003.01.859 2.437h21.722a1.46 1.46 0 0 1 1.326 2.076l.004-.009zm-22.025.865l2.711 7.746 12.603-.841 3.109-6.905H9.488z"/></symbol><symbol id="icon-twitter" viewBox="0 0 32 32"><path d="M21.554 3.2a6.625 6.625 0 0 1 5.107 2.026l.002.002a10.437 10.437 0 0 0 3.367-1.144l-.055.027.804-.439a6.494 6.494 0 0 1-2.09 3.025l-.012.01a3.11 3.11 0 0 1-.693.495l-.017.008v.015a12.07 12.07 0 0 0 3.735-1.016l-.076.031v.01a10.555 10.555 0 0 1-2.175 2.502l-.017.013-1.009.801a18.628 18.628 0 0 1-.319 4.267l.019-.116c-1.615 7.255-5.892 12.185-12.663 14.292-1.602.478-3.442.753-5.347.753-1.344 0-2.657-.137-3.924-.398l.125.022a23.474 23.474 0 0 1-3.954-1.301l.153.059a14.918 14.918 0 0 1-1.895-.982l.066.038-.562-.345a10.256 10.256 0 0 0 2.097.077l-.03.002c.635-.103 1.259-.076 1.846-.204a13.22 13.22 0 0 0 3.944-1.434l-.067.034a7.242 7.242 0 0 0 1.757-1.153l-.007.006h-.003c-.69 0-1.35-.127-1.959-.358l.038.013a6.524 6.524 0 0 1-4.086-4.086l-.013-.046a6.422 6.422 0 0 0 2.931-.134l-.045.011a4.715 4.715 0 0 1-2.127-.859l.014.009c-1.837-1.103-3.047-3.085-3.047-5.349 0-.067.001-.133.003-.199v.01l.662.311c.386.156.84.287 1.311.371l.043.006a1.893 1.893 0 0 0 .895.076l-.011.001h-.03c-.325-.378-.855-.63-1.183-1.038a6.571 6.571 0 0 1-1.632-4.347c0-.538.064-1.061.186-1.561l-.009.045c.18-.641.416-1.2.714-1.719l-.019.037.037.015c.175.254.367.475.581.673l.003.002a12.005 12.005 0 0 0 1.895 1.819l.028.021a18.898 18.898 0 0 0 7.773 3.791l.127.024c.868.229 1.866.367 2.895.378h.007a6.019 6.019 0 0 1 .042-3.077l-.01.042a6.402 6.402 0 0 1 3.618-4.322l.041-.016a7.372 7.372 0 0 1 1.384-.427l.05-.009z"/></symbol><symbol id="icon-web-design" viewBox="0 0 32 32"><path d="M30.5 32h-29A1.5 1.5 0 0 1 0 30.5v-29A1.5 1.5 0 0 1 1.5 0h29A1.5 1.5 0 0 1 32 1.5v29a1.5 1.5 0 0 1-1.5 1.5zM29 3H3v26h26V3zM5.215 16.238l4-2.5c.223-.139.494-.222.785-.222.314 0 .605.096.846.261l-.005-.003.006-.009 6.631 4.42 7.638-5.391a1.5 1.5 0 0 1 1.769 2.423l-.005.003-8.5 6a1.483 1.483 0 0 1-.878.284c-.323 0-.622-.102-.866-.275l.005.003L9.984 16.8l-3.136 1.96a1.502 1.502 0 0 1-1.637-2.518l.006-.004z"/></symbol></defs></svg>