<svg xmlns="http://www.w3.org/2000/svg" width="26" height="22" viewBox="0 0 26 22"><path id="twitter" d="M17.513.6a5.4 5.4 0 0 1 4.151 1.648 8.5 8.5 0 0 0 2.691-.907l.653-.357A5.254 5.254 0 0 1 23.3 3.45a2.524 2.524 0 0 1-.577.409v.012a9.837 9.837 0 0 0 2.973-.8v.008a8.5 8.5 0 0 1-1.781 2.044l-.82.651a15.044 15.044 0 0 1-.244 3.373c-1.312 5.895-4.787 9.9-10.289 11.612a15.729 15.729 0 0 1-7.431.306 19.191 19.191 0 0 1-3.088-1.009 12.3 12.3 0 0 1-1.486-.767l-.457-.28a8.565 8.565 0 0 0 1.679.064c.516-.084 1.023-.062 1.5-.166a10.77 10.77 0 0 0 3.15-1.137 5.863 5.863 0 0 0 1.422-.932 4.476 4.476 0 0 1-1.563-.281A5.275 5.275 0 0 1 2.957 13.2a5.207 5.207 0 0 0 2.345-.1 3.845 3.845 0 0 1-1.717-.69 5.053 5.053 0 0 1-2.473-4.5l.538.253a5.771 5.771 0 0 0 1.1.307 1.574 1.574 0 0 0 .718.063h-.024c-.264-.307-.695-.512-.961-.843A5.366 5.366 0 0 1 1.3 2.926a6.1 6.1 0 0 1 .564-1.367l.03.012a3.2 3.2 0 0 0 .474.549 9.615 9.615 0 0 0 1.563 1.495 15.461 15.461 0 0 0 6.419 3.1 10.015 10.015 0 0 0 2.358.307 4.881 4.881 0 0 1 .026-2.466 5.178 5.178 0 0 1 2.973-3.525 6.312 6.312 0 0 1 1.165-.354z" fill="#f38181" fill-rule="evenodd"/></svg>